REM DIRINDEX 1\2,1\3
REM DIRNAME folder01,folder02,folder03
TITLE ""
FILE "sample sentencesTrack06.mp3" MP3
  TRACK 01 AUDIO
    TITLE "3:cjc143_2461"
    INDEX 01 00:00:00
  TRACK 02 AUDIO
    TITLE "0:"
    INDEX 01 00:00:64
  TRACK 03 AUDIO
    TITLE "3:cjc143_2462"
    INDEX 01 00:01:34
  TRACK 04 AUDIO
    TITLE "0:"
    INDEX 01 00:03:74
  TRACK 05 AUDIO
    TITLE "3:cjc143_2463"
    INDEX 01 00:05:14
  TRACK 06 AUDIO
    TITLE "0:"
    INDEX 01 00:08:38
  TRACK 07 AUDIO
    TITLE "3:cjc143_2464"
    INDEX 01 00:10:08
  TRACK 08 AUDIO
    TITLE "0:"
    INDEX 01 00:12:26
  TRACK 09 AUDIO
    TITLE "3:cjc143_2465"
    INDEX 01 00:13:35
  TRACK 10 AUDIO
    TITLE "0:"
    INDEX 01 00:15:40
  TRACK 11 AUDIO
    TITLE "3:cjc143_2466"
    INDEX 01 00:16:49
  TRACK 12 AUDIO
    TITLE "0:"
    INDEX 01 00:19:20
  TRACK 13 AUDIO
    TITLE "3:cjc143_2467"
    INDEX 01 00:20:26
  TRACK 14 AUDIO
    TITLE "0:"
    INDEX 01 00:22:72
  TRACK 15 AUDIO
    TITLE "3:cjc143_2468"
    INDEX 01 00:24:02
  TRACK 16 AUDIO
    TITLE "0:"
    INDEX 01 00:26:09
  TRACK 17 AUDIO
    TITLE "3:cjc143_2469"
    INDEX 01 00:27:16
  TRACK 18 AUDIO
    TITLE "0:"
    INDEX 01 00:29:34
  TRACK 19 AUDIO
    TITLE "3:cjc143_2470"
    INDEX 01 00:30:40
  TRACK 20 AUDIO
    TITLE "0:"
    INDEX 01 00:32:29
  TRACK 21 AUDIO
    TITLE "3:cjc143_2471"
    INDEX 01 00:33:38
  TRACK 22 AUDIO
    TITLE "0:"
    INDEX 01 00:35:74
  TRACK 23 AUDIO
    TITLE "3:cjc143_2472"
    INDEX 01 00:37:10
  TRACK 24 AUDIO
    TITLE "0:"
    INDEX 01 00:39:07
  TRACK 25 AUDIO
    TITLE "3:cjc143_2473"
    INDEX 01 00:40:17
  TRACK 26 AUDIO
    TITLE "0:"
    INDEX 01 00:42:04
  TRACK 27 AUDIO
    TITLE "3:cjc143_2474"
    INDEX 01 00:43:11
  TRACK 28 AUDIO
    TITLE "0:"
    INDEX 01 00:46:00
  TRACK 29 AUDIO
    TITLE "3:cjc143_2475"
    INDEX 01 00:47:09
  TRACK 30 AUDIO
    TITLE "0:"
    INDEX 01 00:49:37
  TRACK 31 AUDIO
    TITLE "3:cjc143_2476"
    INDEX 01 00:50:46
  TRACK 32 AUDIO
    TITLE "0:"
    INDEX 01 00:53:02
  TRACK 33 AUDIO
    TITLE "3:cjc143_2477"
    INDEX 01 00:54:09
  TRACK 34 AUDIO
    TITLE "0:"
    INDEX 01 00:57:29
  TRACK 35 AUDIO
    TITLE "3:cjc143_2478"
    INDEX 01 00:58:38
  TRACK 36 AUDIO
    TITLE "0:"
    INDEX 01 01:02:32
  TRACK 37 AUDIO
    TITLE "3:cjc143_2479"
    INDEX 01 01:03:41
  TRACK 38 AUDIO
    TITLE "0:"
    INDEX 01 01:05:54
  TRACK 39 AUDIO
    TITLE "3:cjc143_2480"
    INDEX 01 01:06:61
  TRACK 40 AUDIO
    TITLE "0:"
    INDEX 01 01:09:71
  TRACK 41 AUDIO
    TITLE "3:cjc143_2481"
    INDEX 01 01:11:07
  TRACK 42 AUDIO
    TITLE "0:"
    INDEX 01 01:14:21
  TRACK 43 AUDIO
    TITLE "3:cjc143_2482"
    INDEX 01 01:15:31
  TRACK 44 AUDIO
    TITLE "0:"
    INDEX 01 01:18:37
  TRACK 45 AUDIO
    TITLE "3:cjc143_2483"
    INDEX 01 01:19:44
  TRACK 46 AUDIO
    TITLE "0:"
    INDEX 01 01:23:07
  TRACK 47 AUDIO
    TITLE "3:cjc143_2484"
    INDEX 01 01:24:16
  TRACK 48 AUDIO
    TITLE "0:"
    INDEX 01 01:26:68
  TRACK 49 AUDIO
    TITLE "3:cjc143_2485"
    INDEX 01 01:28:00
  TRACK 50 AUDIO
    TITLE "0:"
    INDEX 01 01:31:43
  TRACK 51 AUDIO
    TITLE "3:cjc143_2486"
    INDEX 01 01:32:53
  TRACK 52 AUDIO
    TITLE "0:"
    INDEX 01 01:35:14
  TRACK 53 AUDIO
    TITLE "3:cjc143_2487"
    INDEX 01 01:36:25
  TRACK 54 AUDIO
    TITLE "0:"
    INDEX 01 01:38:57
  TRACK 55 AUDIO
    TITLE "3:cjc143_2488"
    INDEX 01 01:39:64
  TRACK 56 AUDIO
    TITLE "0:"
    INDEX 01 01:42:65
  TRACK 57 AUDIO
    TITLE "3:cjc143_2489"
    INDEX 01 01:43:72
  TRACK 58 AUDIO
    TITLE "0:"
    INDEX 01 01:46:08
  TRACK 59 AUDIO
    TITLE "3:cjc143_2490"
    INDEX 01 01:47:13
  TRACK 60 AUDIO
    TITLE "0:"
    INDEX 01 01:50:53
  TRACK 61 AUDIO
    TITLE "3:cjc143_2491"
    INDEX 01 01:51:62
  TRACK 62 AUDIO
    TITLE "0:"
    INDEX 01 01:54:46
  TRACK 63 AUDIO
    TITLE "3:cjc143_2492"
    INDEX 01 01:55:56
  TRACK 64 AUDIO
    TITLE "0:"
    INDEX 01 01:58:46
